<!DOCTYPE svg PUBLIC "-//W3C//DTD SVG 1.1//EN" "http://www.w3.org/Graphics/SVG/1.1/DTD/svg11.dtd">
<!-- Uploaded to: SVG Repo, www.svgrepo.com, Transformed by: SVG Repo Mixer Tools -->
<svg fill="#FFC000" version="1.1" id="Capa_1" xmlns="http://www.w3.org/2000/svg" xmlns:xlink="http://www.w3.org/1999/xlink" width="800px" height="800px" viewBox="0 0 351.437 351.437" xml:space="preserve" stroke="#FFC000" transform="matrix(-1, 0, 0, 1, 0, 0)rotate(0)">
<g id="SVGRepo_bgCarrier" stroke-width="0"/>
<g id="SVGRepo_tracerCarrier" stroke-linecap="round" stroke-linejoin="round" stroke="#CCCCCC" stroke-width="0.702874"/>
<g id="SVGRepo_iconCarrier"> <g> <g> <g id="Layer_5_27_"> <g> <path d="M348.545,51.96c-3.996-2.768-10.646-0.22-14.851,5.691L230.327,202.976c0,0-0.54,0.918-1.54,0.918 c-1.773,0-5.101,0-7.094,0c-1.781,0-1.239-1.497-1.239-1.497l63.843-185.088c2.356-6.836,0.521-13.637-4.103-15.188 c-4.623-1.553-10.28,2.729-12.641,9.566l-65.778,190.708c0,0-0.646,1.498-2.396,1.498c-47.292,0-189.167,0-189.167,0 c-8.25,0-12.344,6.206-9.097,13.79l50.578,118.161c3.246,7.584,12.652,13.79,20.902,13.79h174.183 c8.25,0,17.655-6.206,20.902-13.79l50.578-118.161c3.246-7.584-0.848-13.79-9.098-13.79c0,0-42.729,0-56.972,0 c-0.958,0-0.309-0.854-0.309-0.854l96.284-135.363C352.375,61.764,352.543,54.729,348.545,51.96z"/> <g> <path d="M218.683,119.533l3.431-9.94c0.518-1.369-0.573-2.056-1.088-2.438c-9.38-6.991-20.945-11.116-33.272-11.116 c-20.872,0-39.674,11.455-49.309,29.607c-4.641-1.215-9.423-1.828-14.276-1.828c-20.791,0-39.815,11.59-49.551,29.525 c-7.438-4.85-16.134-7.458-25.157-7.458c-24.916,0-45.285,19.839-46.14,44.549c-0.019,0.537-0.001,1.618,1.018,1.618h10 c1.084,0,0.962-0.855,0.978-1.28c0.676-18.248,15.733-32.887,34.145-32.887c8.706,0,16.993,3.295,23.361,9.248 c1.172,1.096,3.184,2.966,6.184,1.716c2.09-0.869,3.037-2.78,3.552-4.02c7.093-17.078,23.111-29.013,41.611-29.013 c5.29,0,10.521,0.784,15.391,2.747c1.091,0.438,2.946,1.284,4.696,0.284c1.923-1.099,2.497-2.548,2.936-3.629 c6.714-16.545,22.715-27.183,40.562-27.183c10.694,0,20.661,3.952,28.383,10.527 C216.887,119.206,218.379,120.411,218.683,119.533z"/> <path d="M255.141,135.685l-3.523,10.223c-0.3,0.813,0.432,0.854,0.812,0.813c1.379-0.147,2.79-0.011,4.17-0.257 c0.363-0.064,0.52-0.211,0.769-0.48l7.548-10.611c0.217-0.271-0.293-0.441-0.57-0.477c-2.312-0.285-4.665-0.441-7.055-0.441 c-0.199,0-0.399,0.001-0.6,0.004C256.311,134.461,255.629,134.452,255.141,135.685z"/> <path d="M299.637,154.891l-5.982,8.411c-0.523,0.589,0.082,1.372,0.35,1.734c5.235,7.097,8.467,15.759,8.848,25.143 c0.025,0.621,0.321,1.874,1.321,1.874h9.583c1.5,0,1.125-1.141,1.108-1.707c-0.396-13.479-5.452-25.8-13.601-35.432 C300.967,154.565,300.212,153.974,299.637,154.891z"/> </g> </g> </g> </g> </g> </g>
</svg>